<svg xmlns="http://www.w3.org/2000/svg" viewBox="0 0 32 32">
  <rect width="32" height="32" rx="8" fill="#2563eb" />

  <g transform="translate(6 8)">
    <path 
      d="M0 2c0-2 3-2 5 0s4 2 8 0 5-2 7 0v3c-2-2-5-2-7 0s-5 2-8 0-5-2-5 0V2z" 
      fill="#ffffff" 
      opacity="0.6"
    />
    
    <path 
      d="M0 8c0-2 3-2 5 0s4 2 8 0 5-2 7 0v3c-2-2-5-2-7 0s-5 2-8 0-5-2-5 0V8z" 
      fill="#ffffff" 
    />
    
    <path 
      d="M0 14c0-2 3-2 5 0s4 2 8 0 5-2 7 0v3c-2-2-5-2-7 0s-5 2-8 0-5-2-5 0V14z" 
      fill="#ffffff" 
      opacity="0.6"
    />
  </g>
</svg>